<svg width="93" height="15" viewBox="0 0 93 15" fill="none" xmlns="http://www.w3.org/2000/svg">
<path d="M14.9023 3.97656C14.8477 4.25 14.6289 4.69661 14.2461 5.31641C13.8815 5.9362 13.5443 6.48307 13.2344 6.95703C12.9245 7.41276 12.7604 7.64974 12.7422 7.66797C12.6328 7.83203 12.5781 7.95052 12.5781 8.02344C12.5781 8.09635 12.6328 8.22396 12.7422 8.40625C12.7422 8.40625 12.7969 8.47005 12.9062 8.59766C13.0339 8.72526 13.1797 8.87109 13.3438 9.03516C13.5078 9.19922 13.6901 9.39062 13.8906 9.60938C14.0911 9.82812 14.2734 10.0469 14.4375 10.2656C14.6198 10.4661 14.7747 10.6758 14.9023 10.8945C15.0482 11.1133 15.1484 11.2956 15.2031 11.4414C15.3307 11.8971 15.1484 12.125 14.6562 12.125H13.043C12.9154 12.125 12.806 12.1068 12.7148 12.0703C12.6237 12.0339 12.5234 11.9701 12.4141 11.8789C12.3047 11.7878 12.2044 11.6875 12.1133 11.5781C12.0221 11.4688 11.8854 11.3138 11.7031 11.1133C11.5208 10.9128 11.3385 10.7214 11.1562 10.5391C10.4271 9.84635 9.88932 9.5 9.54297 9.5C9.32422 9.5 9.19661 9.5638 9.16016 9.69141C9.1237 9.81901 9.10547 10.1836 9.10547 10.7852C9.1237 11.0768 9.13281 11.3138 9.13281 11.4961C9.13281 11.7148 9.0599 11.8789 8.91406 11.9883C8.76823 12.0794 8.44922 12.125 7.95703 12.125C7.10026 12.125 6.23438 11.8698 5.35938 11.3594C4.48438 10.849 3.71875 10.1198 3.0625 9.17188C2.44271 8.33333 1.92318 7.50391 1.50391 6.68359C1.10286 5.84505 0.838542 5.20703 0.710938 4.76953C0.583333 4.33203 0.519531 4.02214 0.519531 3.83984C0.519531 3.52995 0.701823 3.375 1.06641 3.375H2.67969C2.88021 3.375 3.02604 3.42057 3.11719 3.51172C3.22656 3.60286 3.31771 3.76693 3.39062 4.00391C3.77344 5.11589 4.23828 6.10938 4.78516 6.98438C5.35026 7.85938 5.77865 8.29688 6.07031 8.29688C6.17969 8.29688 6.2526 8.26042 6.28906 8.1875C6.34375 8.09635 6.37109 7.93229 6.37109 7.69531V5.31641C6.35286 5.0612 6.30729 4.84245 6.23438 4.66016C6.16146 4.47786 6.08854 4.35026 6.01562 4.27734C5.94271 4.1862 5.86979 4.09505 5.79688 4.00391C5.74219 3.91276 5.71484 3.83073 5.71484 3.75781C5.71484 3.6849 5.73307 3.62109 5.76953 3.56641C5.80599 3.51172 5.85156 3.46615 5.90625 3.42969C5.97917 3.39323 6.05208 3.375 6.125 3.375H8.66797C8.95964 3.375 9.10547 3.57552 9.10547 3.97656V7.14844C9.10547 7.45833 9.1875 7.61328 9.35156 7.61328C9.53385 7.61328 9.78906 7.44922 10.1172 7.12109C10.4635 6.73828 10.8008 6.27344 11.1289 5.72656C11.457 5.17969 11.7031 4.72396 11.8672 4.35938L12.1133 3.83984C12.2409 3.52995 12.4688 3.375 12.7969 3.375H14.4102C14.8477 3.375 15.0117 3.57552 14.9023 3.97656ZM63.6289 8.625H61.5781V14.75H58.8438V8.625H56.6289V6.08203H58.8438V4.16797C58.8438 3.4388 58.9805 2.81901 59.2539 2.30859C59.5273 1.79818 59.9102 1.41536 60.4023 1.16016C60.9128 0.886719 61.4961 0.75 62.1523 0.75C62.444 0.75 62.7539 0.768229 63.082 0.804688C63.4102 0.822917 63.6654 0.85026 63.8477 0.886719L64.1211 0.914062V3.07422H63.0273C62.5169 3.07422 62.1432 3.21094 61.9062 3.48438C61.6875 3.73958 61.5781 4.05859 61.5781 4.44141V6.08203H64.0117L63.6289 8.625ZM91.3008 4.90625C91.319 4.97917 91.3281 5.09766 91.3281 5.26172C91.3281 6.22786 91.1458 7.19401 90.7812 8.16016C90.4167 9.10807 89.8971 9.98307 89.2227 10.7852C88.5664 11.569 87.7096 12.207 86.6523 12.6992C85.5951 13.1914 84.4284 13.4375 83.1523 13.4375C81.5482 13.4375 80.0807 13.0091 78.75 12.1523C78.9505 12.1706 79.1784 12.1797 79.4336 12.1797C80.7643 12.1797 81.9583 11.7695 83.0156 10.9492C82.3776 10.9492 81.8125 10.7669 81.3203 10.4023C80.8464 10.0195 80.5182 9.54557 80.3359 8.98047C80.5182 8.9987 80.6914 9.00781 80.8555 9.00781C81.1107 9.00781 81.3659 8.98047 81.6211 8.92578C81.1836 8.83464 80.7917 8.65234 80.4453 8.37891C80.099 8.10547 79.8255 7.77734 79.625 7.39453C79.4245 6.99349 79.3242 6.5651 79.3242 6.10938V6.05469C79.7253 6.29167 80.1536 6.41927 80.6094 6.4375C79.7526 5.85417 79.3242 5.05208 79.3242 4.03125C79.3242 3.52083 79.4609 3.03776 79.7344 2.58203C80.4453 3.47526 81.3112 4.1862 82.332 4.71484C83.3711 5.24349 84.474 5.53516 85.6406 5.58984C85.6042 5.37109 85.5859 5.15234 85.5859 4.93359C85.5859 4.14974 85.8594 3.47526 86.4062 2.91016C86.9714 2.34505 87.6458 2.0625 88.4297 2.0625C89.2682 2.0625 89.9701 2.36328 90.5352 2.96484C91.1914 2.83724 91.8021 2.60938 92.3672 2.28125C92.1484 2.95573 91.7292 3.48438 91.1094 3.86719C91.6562 3.79427 92.2031 3.63932 92.75 3.40234C92.349 3.98568 91.8659 4.48698 91.3008 4.90625Z" fill="#686868"/>
<path d="M33.6602 5.53516C34.2799 4.91536 35.0273 4.60547 35.9023 4.60547C36.7773 4.60547 37.5156 4.91536 38.1172 5.53516C38.737 6.13672 39.0469 6.875 39.0469 7.75C39.0469 8.625 38.737 9.3724 38.1172 9.99219C37.5156 10.5938 36.7773 10.8945 35.9023 10.8945C35.0273 10.8945 34.2799 10.5938 33.6602 9.99219C33.0586 9.3724 32.7578 8.625 32.7578 7.75C32.7578 6.875 33.0586 6.13672 33.6602 5.53516ZM34.4531 9.19922C34.8542 9.60026 35.3372 9.80078 35.9023 9.80078C36.4674 9.80078 36.9505 9.60026 37.3516 9.19922C37.7526 8.79818 37.9531 8.3151 37.9531 7.75C37.9531 7.1849 37.7526 6.70182 37.3516 6.30078C36.9505 5.89974 36.4674 5.69922 35.9023 5.69922C35.3372 5.69922 34.8542 5.89974 34.4531 6.30078C34.0521 6.70182 33.8516 7.1849 33.8516 7.75C33.8516 8.3151 34.0521 8.79818 34.4531 9.19922ZM39.6758 3.97656C39.8216 4.10417 39.8945 4.26823 39.8945 4.46875C39.8945 4.66927 39.8216 4.84245 39.6758 4.98828C39.5482 5.13411 39.3841 5.20703 39.1836 5.20703C38.9831 5.20703 38.8099 5.13411 38.6641 4.98828C38.5182 4.84245 38.4453 4.66927 38.4453 4.46875C38.4453 4.26823 38.5182 4.10417 38.6641 3.97656C38.8099 3.83073 38.9831 3.75781 39.1836 3.75781C39.3841 3.75781 39.5482 3.83073 39.6758 3.97656ZM42 5.23438C42.0182 5.72656 42.0273 6.5651 42.0273 7.75C42.0273 8.9349 42.0182 9.77344 42 10.2656C41.9453 11.3776 41.6081 12.2435 40.9883 12.8633C40.3867 13.4648 39.5299 13.7839 38.418 13.8203C37.9258 13.8568 37.0872 13.875 35.9023 13.875C34.7174 13.875 33.8789 13.8568 33.3867 13.8203C32.2747 13.7656 31.418 13.4375 30.8164 12.8359C30.5794 12.6172 30.388 12.362 30.2422 12.0703C30.0964 11.7786 29.987 11.4961 29.9141 11.2227C29.8594 10.9492 29.832 10.6302 29.832 10.2656C29.7956 9.77344 29.7773 8.9349 29.7773 7.75C29.7773 6.5651 29.7956 5.71745 29.832 5.20703C29.8867 4.11328 30.2148 3.26562 30.8164 2.66406C31.418 2.04427 32.2747 1.70703 33.3867 1.65234C33.8789 1.63411 34.7174 1.625 35.9023 1.625C37.0872 1.625 37.9258 1.63411 38.418 1.65234C39.5299 1.70703 40.3867 2.04427 40.9883 2.66406C41.6081 3.26562 41.9453 4.1224 42 5.23438ZM40.6875 11.3594C40.7422 11.2135 40.7878 11.0312 40.8242 10.8125C40.8607 10.5755 40.888 10.3021 40.9062 9.99219C40.9245 9.66406 40.9336 9.39974 40.9336 9.19922C40.9336 8.9987 40.9336 8.71615 40.9336 8.35156C40.9336 7.98698 40.9336 7.78646 40.9336 7.75C40.9336 7.69531 40.9336 7.49479 40.9336 7.14844C40.9336 6.78385 40.9336 6.5013 40.9336 6.30078C40.9336 6.10026 40.9245 5.84505 40.9062 5.53516C40.888 5.20703 40.8607 4.93359 40.8242 4.71484C40.7878 4.47786 40.7422 4.28646 40.6875 4.14062C40.4688 3.57552 40.0768 3.18359 39.5117 2.96484C39.3659 2.91016 39.1745 2.86458 38.9375 2.82812C38.7188 2.79167 38.4453 2.76432 38.1172 2.74609C37.8073 2.72786 37.5521 2.71875 37.3516 2.71875C37.1693 2.71875 36.8867 2.71875 36.5039 2.71875C36.1393 2.71875 35.9388 2.71875 35.9023 2.71875C35.8659 2.71875 35.6654 2.71875 35.3008 2.71875C34.9362 2.71875 34.6536 2.71875 34.4531 2.71875C34.2526 2.71875 33.9883 2.72786 33.6602 2.74609C33.3503 2.76432 33.0768 2.79167 32.8398 2.82812C32.6211 2.86458 32.4388 2.91016 32.293 2.96484C31.7279 3.18359 31.3359 3.57552 31.1172 4.14062C31.0625 4.28646 31.0169 4.47786 30.9805 4.71484C30.944 4.93359 30.9167 5.20703 30.8984 5.53516C30.8802 5.84505 30.8711 6.10026 30.8711 6.30078C30.8711 6.48307 30.8711 6.76562 30.8711 7.14844C30.8711 7.51302 30.8711 7.71354 30.8711 7.75C30.8711 7.82292 30.8711 7.99609 30.8711 8.26953C30.8711 8.52474 30.8711 8.74349 30.8711 8.92578C30.8711 9.08984 30.8711 9.30859 30.8711 9.58203C30.8893 9.85547 30.9076 10.0924 30.9258 10.293C30.944 10.4753 30.9714 10.6667 31.0078 10.8672C31.0443 11.0677 31.0807 11.2318 31.1172 11.3594C31.3542 11.9245 31.7461 12.3164 32.293 12.5352C32.4388 12.5898 32.6211 12.6354 32.8398 12.6719C33.0768 12.7083 33.3503 12.7357 33.6602 12.7539C33.9883 12.7721 34.2435 12.7812 34.4258 12.7812C34.6263 12.7812 34.9089 12.7812 35.2734 12.7812C35.6562 12.7812 35.8659 12.7812 35.9023 12.7812C35.957 12.7812 36.1576 12.7812 36.5039 12.7812C36.8685 12.7812 37.151 12.7812 37.3516 12.7812C37.5521 12.7812 37.8073 12.7721 38.1172 12.7539C38.4453 12.7357 38.7188 12.7083 38.9375 12.6719C39.1745 12.6354 39.3659 12.5898 39.5117 12.5352C40.0768 12.2982 40.4688 11.9062 40.6875 11.3594Z" fill="white"/>
</svg>
